<?xml version="1.0" encoding="UTF-8"?>
<svg id="Layer_1" data-name="Layer 1" xmlns="http://www.w3.org/2000/svg" viewBox="0 0 1000 1000">
  <defs>
    <style>
      .cls-1 {
        fill: #62dcff;
        fill-rule: evenodd;
      }
    </style>
  </defs>
  <path class="cls-1" d="M250.29,751.82c167.15,166.27,437.88,166.03,604.7-.8,153.73-153.73,166.05-395.67,36.93-563.55-.17-.22-.17-.55.03-.75,157.4,196.37,145.08,484.26-36.95,666.28-195.27,195.27-512.28,195.27-707.55,0-195.27-195.27-195.27-512.28,0-707.55C329.49-36.57,617.36-48.89,813.74,108.51l-.03.03c-.19.19-.5.17-.69.03C645.14-20.56,403.19-8.29,249.44,145.46c-166.83,166.83-167.08,437.55-.8,604.7-1.64-1.17,2.36,2.83,1.66,1.66h0Z"/>
</svg>